<svg id="outline" height="512" viewBox="0 0 512 512" width="512" xmlns="http://www.w3.org/2000/svg"><path d="m64 356 10.309 10.309a156 156 0 0 0 110.308 45.691h140.768a156 156 0 0 0 102.727-38.6l19.888-17.4z" fill="#bcbbbb"/><ellipse cx="256" cy="316" fill="#dddcdb" rx="248" ry="64"/><path d="m251 332h172.5a21.5 21.5 0 0 0 21.5-21.5 21.5 21.5 0 0 0 -21.5-21.5h-197.36z" fill="#bcbbbb"/><path d="m303 165s34.347-24.372 80.9-11.215a35.917 35.917 0 0 0 35.088-9.312l8.293-11.969a19.255 19.255 0 0 1 29.442-2.649 19.255 19.255 0 0 1 1.42 25.644l-65.217 81.522z" fill="#9b5e15"/><path d="m394 237 79.67-63.289a18.71 18.71 0 0 1 27.194 4.207 18.546 18.546 0 0 1 -1.249 22.293l-74.857 88.628c-7.224 9.254-20.991 19.161-32.758 19.161h-152l11.252 24h-171.588c-47.664 0-47.664-28.494-47.664-28.494 0-78.683 86.7-147.506 192-147.506 73.159 0 132.112 14.535 170.243 81.021z" fill="#d38f29"/><path d="m98.485 284h47.49s56.033-42.485 94.025 24c0 0 4-73-88-52z" fill="#b5741d"/><path d="m274.976 159.152a364.518 364.518 0 0 0 -50.976-3.152c-105.3 0-192 68.823-192 147.506 0 0 0 14.62 17.522 22.915 20.072-100.153 163.042-150.061 225.454-167.269z" fill="#f7c889" opacity=".5"/><path d="m474.079 276.693-6.518 14.612c18.074 8.063 28.439 17.064 28.439 24.695 0 9.819-17.506 24.83-66.637 37.509-46.207 11.924-107.775 18.491-173.363 18.491s-127.156-6.567-173.363-18.491c-49.131-12.679-66.637-27.69-66.637-37.509h-16c0 22.551 29.759 37.917 60.453 47.767l8.2 8.2a162.928 162.928 0 0 0 115.964 48.033h140.769a163.95 163.95 0 0 0 107.994-40.578l17.734-15.517c30.846-9.844 60.886-25.248 60.886-47.905 0-14.857-12.759-28.082-37.921-39.307zm-289.462 127.307a146.876 146.876 0 0 1 -91.3-31.5c45.417 10.03 102.463 15.5 162.683 15.5 58.979 0 114.911-5.247 159.86-14.884a147.951 147.951 0 0 1 -90.474 30.884z"/><path d="m79.663 340h171.589a8 8 0 0 0 7.243-11.4l-5.909-12.6h139.414c14.854 0 30.579-11.437 38.965-22.111l74.762-88.516a26.637 26.637 0 0 0 -37.043-37.918l-27.226 21.7 22.928-28.66a27.255 27.255 0 1 0 -43.686-32.547l-7.857 11.34a27.888 27.888 0 0 1 -26.771 6.8c-43.8-12.382-76.614 5.121-84.745 10.121-21.579-5.565-46.773-8.209-77.327-8.209-108.411 0-200 71.213-200 155.506 0 1.026.22 10.291 7.821 19.379 9.498 11.357 25.595 17.115 47.842 17.115zm302.056-178.517a43.914 43.914 0 0 0 42.922-11.354l.509-.509 8.7-12.561a11.255 11.255 0 1 1 18.042 13.441l-57.392 71.742c-17.945-27.1-40.66-46.164-69.164-58.048-.645-.269-1.3-.532-1.949-.794a94.212 94.212 0 0 1 58.332-1.917zm-288.299 45.083c35.364-27.449 81.738-42.566 130.58-42.566 40.45 0 70.694 4.754 95.179 14.962a131.762 131.762 0 0 1 44.8 30.535 89.835 89.835 0 0 0 -59.127-1.478 107.033 107.033 0 0 0 -40.185 23.334l11.283 11.347c2.134-2.1 52.952-50.962 113.1.4a8 8 0 0 0 10.182.172l79.427-63.31a10.632 10.632 0 0 1 14.841 15.087l-74.857 88.628c-.066.079-.132.158-.2.24-6.163 7.906-17.743 16.083-26.443 16.083h-147.457c-12.571-20.249-28.23-32.408-46.6-36.16a59.568 59.568 0 0 0 -5.971-.9l.03-26.935-16-.018-.031 27.383a84.076 84.076 0 0 0 -32.498 12.63h-44.988v16h47.489l2.683-.014 2.133-1.6c.208-.157 21.155-15.6 44.07-10.848 14.739 3.055 27.542 13.893 38.06 32.2l5.746 12.262h-159c-16.479 0-28.566-3.7-34.966-10.69a17.1 17.1 0 0 1 -4.7-9.91c.04-35.221 19.506-70.51 53.42-96.834z"/><path d="m176 292h16v16h-16z"/><path d="m232 188h16v16h-16z"/><path d="m136.478 204h18.995v16h-18.995z"/><path d="m183.967 196h16.033v16h-16.033z"/><path d="m320 332h16v16h-16z"/><path d="m272 92h16v16h-16z"/><path d="m152 108h16v16h-16z"/><path d="m360 332h16v16h-16z"/></svg>